<?xml version="1.0" encoding="UTF-8" standalone="no"?>
<!-- Created with Inkscape (http://www.inkscape.org/) -->

<svg
   xmlns:dc="http://purl.org/dc/elements/1.1/"
   xmlns:cc="http://creativecommons.org/ns#"
   xmlns:rdf="http://www.w3.org/1999/02/22-rdf-syntax-ns#"
   xmlns:svg="http://www.w3.org/2000/svg"
   xmlns="http://www.w3.org/2000/svg"
   xmlns:sodipodi="http://sodipodi.sourceforge.net/DTD/sodipodi-0.dtd"
   xmlns:inkscape="http://www.inkscape.org/namespaces/inkscape"
   width="49.789635mm"
   height="50.22998mm"
   viewBox="0 0 49.789635 50.22998"
   version="1.1"
   id="svg8"
   inkscape:version="0.92.3 (2405546, 2018-03-11)"
   sodipodi:docname="searchlight.svg">
  <defs
     id="defs2">
    <clipPath
       clipPathUnits="userSpaceOnUse"
       id="clipPath972">
      <rect
         style="fill:none;fill-opacity:1;stroke:#000000;stroke-width:0.70555556;stroke-linecap:butt;stroke-linejoin:miter;stroke-miterlimit:4;stroke-dasharray:none;stroke-dashoffset:0;stroke-opacity:1"
         id="rect974"
         width="37.885452"
         height="28.343937"
         x="42.094952"
         y="59.303844" />
    </clipPath>
  </defs>
  <sodipodi:namedview
     id="base"
     pagecolor="#ffffff"
     bordercolor="#666666"
     borderopacity="1.0"
     inkscape:pageopacity="0.0"
     inkscape:pageshadow="2"
     inkscape:zoom="2.8284271"
     inkscape:cx="139.4645"
     inkscape:cy="54.861915"
     inkscape:document-units="mm"
     inkscape:current-layer="layer1"
     showgrid="false"
     inkscape:window-width="2558"
     inkscape:window-height="1387"
     inkscape:window-x="0"
     inkscape:window-y="30"
     inkscape:window-maximized="0"
     inkscape:snap-global="false"
     fit-margin-left="5"
     fit-margin-right="5"
     fit-margin-bottom="5"
     fit-margin-top="5" />
  <metadata
     id="metadata5">
    <rdf:RDF>
      <cc:Work
         rdf:about="">
        <dc:format>image/svg+xml</dc:format>
        <dc:type
           rdf:resource="http://purl.org/dc/dcmitype/StillImage" />
        <dc:title></dc:title>
      </cc:Work>
    </rdf:RDF>
  </metadata>
  <g
     inkscape:label="Layer 1"
     inkscape:groupmode="layer"
     id="layer1"
     transform="translate(-39.28646,-42.417803)">
    <path
       d="M 44.418751,60.166667 V 182.46667 M 47.064584,60.166667 V 182.46667 M 49.710417,60.166667 V 182.46667 M 52.356251,60.166667 V 182.46667 M 55.002084,60.166667 V 182.46667 M 57.647917,60.166667 V 182.46667 M 60.29375,60.166667 V 182.46667 M 62.939584,60.166667 V 182.46667 M 65.585417,60.166667 V 182.46667 M 68.23125,60.166667 V 182.46667 M 70.877084,60.166667 V 182.46667 M 73.522917,60.166667 V 182.46667 M 76.16875,60.166667 V 182.46667 M 78.814583,60.166667 V 182.46667 M 81.460417,60.166667 V 182.46667 M 84.106247,60.166667 V 182.46667 M 86.752087,60.166667 V 182.46667 M 89.397917,60.166667 V 182.46667 M 92.043747,60.166667 V 182.46667 M 94.689587,60.166667 V 182.46667 M 97.335417,60.166667 V 182.46667 M 99.981247,60.166667 V 182.46667 M 102.62709,60.166667 V 182.46667 M 105.27292,60.166667 V 182.46667 M 107.91875,60.166667 V 182.46667 M 110.56459,60.166667 V 182.46667 M 113.21042,60.166667 V 182.46667 M 115.85625,60.166667 V 182.46667 M 118.50208,60.166667 V 182.46667 M 121.14792,60.166667 V 182.46667 M 123.79375,60.166667 V 182.46667 M 126.43958,60.166667 V 182.46667 M 129.08542,60.166667 V 182.46667 M 131.73125,60.166667 V 182.46667 M 134.37709,60.166667 V 182.46667 M 137.02292,60.166667 V 182.46667 M 139.66875,60.166667 V 182.46667 M 142.31459,60.166667 V 182.46667 M 144.96042,60.166667 V 182.46667 M 147.60625,60.166667 V 182.46667 M 150.25209,60.166667 V 182.46667 M 152.89792,60.166667 V 182.46667 M 155.54375,60.166667 V 182.46667 M 158.18959,60.166667 V 182.46667 M 160.83542,60.166667 V 182.46667 M 163.48125,60.166667 V 182.46667 M 166.12709,60.166667 V 182.46667 M 44.418751,60.166667 H 166.71876 M 44.418751,62.812497 H 166.71876 M 44.418751,65.458337 H 166.71876 M 44.418751,68.104167 H 166.71876 M 44.418751,70.749997 H 166.71876 M 44.418751,73.395837 H 166.71876 M 44.418751,76.041667 H 166.71876 M 44.418751,78.687497 H 166.71876 M 44.418751,81.333337 H 166.71876 M 44.418751,83.979167 H 166.71876 M 44.418751,86.624997 H 166.71876 M 44.418751,89.270837 H 166.71876 M 44.418751,91.916667 H 166.71876 M 44.418751,94.562497 H 166.71876 M 44.418751,97.208337 H 166.71876 M 44.418751,99.854167 H 166.71876 M 44.418751,102.50001 H 166.71876 M 44.418751,105.14584 H 166.71876 M 44.418751,107.79167 H 166.71876 M 44.418751,110.43751 H 166.71876 M 44.418751,113.08334 H 166.71876 M 44.418751,115.72917 H 166.71876 M 44.418751,118.37501 H 166.71876 M 44.418751,121.02084 H 166.71876 M 44.418751,123.66667 H 166.71876 M 44.418751,126.31251 H 166.71876 M 44.418751,128.95834 H 166.71876 M 44.418751,131.60417 H 166.71876 M 44.418751,134.25001 H 166.71876 M 44.418751,136.89584 H 166.71876 M 44.418751,139.54167 H 166.71876 M 44.418751,142.18751 H 166.71876 M 44.418751,144.83334 H 166.71876 M 44.418751,147.47917 H 166.71876 M 44.418751,150.12501 H 166.71876 M 44.418751,152.77084 H 166.71876 M 44.418751,155.41667 H 166.71876 M 44.418751,158.06251 H 166.71876 M 44.418751,160.70834 H 166.71876 M 44.418751,163.35417 H 166.71876 M 44.418751,166.00001 H 166.71876 M 44.418751,168.64584 H 166.71876 M 44.418751,171.29167 H 166.71876 M 44.418751,173.93751 H 166.71876 M 44.418751,176.58334 H 166.71876 M 44.418751,179.22917 H 166.71876 M 44.418751,181.875 H 166.71876"
       style="fill:none;stroke:#000000;stroke-width:0.26458299px"
       id="path819"
       inkscape:connector-curvature="0"
       clip-path="url(#clipPath972)" />
    <circle
       style="fill:none;fill-opacity:1;stroke:#d40000;stroke-width:0.70555556;stroke-linecap:butt;stroke-linejoin:miter;stroke-miterlimit:4;stroke-dasharray:none;stroke-dashoffset:0;stroke-opacity:1"
       id="path823"
       cx="58.93293"
       cy="72.025871"
       r="8.1383572" />
    <path
       style="fill:#d40000;fill-opacity:0.50499998;stroke:none;stroke-width:2.66666675;stroke-linecap:butt;stroke-linejoin:miter;stroke-miterlimit:4;stroke-dasharray:none;stroke-dashoffset:0;stroke-opacity:1"
       d="m 218.57744,252.40246 v -4.41942 h 4.24264 4.24265 v 4.41942 4.41942 h -4.24265 -4.24264 z"
       id="path895"
       inkscape:connector-curvature="0"
       transform="scale(0.26458333)" />
    <path
       style="fill:#d40000;fill-opacity:0.50499998;stroke:none;stroke-width:2.66666675;stroke-linecap:butt;stroke-linejoin:miter;stroke-miterlimit:4;stroke-dasharray:none;stroke-dashoffset:0;stroke-opacity:1"
       d="m 218.57744,262.47873 v -4.24264 h 4.24264 4.24265 v 4.24264 4.24264 h -4.24265 -4.24264 z"
       id="path897"
       inkscape:connector-curvature="0"
       transform="scale(0.26458333)" />
    <path
       style="fill:#d400b5;fill-opacity:1;stroke:none;stroke-width:2.66666675;stroke-linecap:butt;stroke-linejoin:miter;stroke-miterlimit:4;stroke-dasharray:none;stroke-dashoffset:0;stroke-opacity:1"
       d="m 218.57744,272.37823 v -4.24265 h 4.24264 4.24265 v 4.24265 4.24264 h -4.24265 -4.24264 z"
       id="path899"
       inkscape:connector-curvature="0"
       transform="scale(0.26458333)" />
    <path
       style="fill:#d40000;fill-opacity:0.50499998;stroke:none;stroke-width:2.66666675;stroke-linecap:butt;stroke-linejoin:miter;stroke-miterlimit:4;stroke-dasharray:none;stroke-dashoffset:0;stroke-opacity:1"
       d="m 218.57744,282.4545 v -4.41942 h 4.24264 4.24265 v 4.41942 4.41941 h -4.24265 -4.24264 z"
       id="path901"
       inkscape:connector-curvature="0"
       transform="scale(0.26458333)" />
    <path
       style="fill:#d40000;fill-opacity:0.50499998;stroke:none;stroke-width:2.66666675;stroke-linecap:butt;stroke-linejoin:miter;stroke-miterlimit:4;stroke-dasharray:none;stroke-dashoffset:0;stroke-opacity:1"
       d="m 218.57744,292.35399 v -4.41942 h 4.24264 4.24265 v 4.41942 4.41942 h -4.24265 -4.24264 z"
       id="path903"
       inkscape:connector-curvature="0"
       transform="scale(0.26458333)" />
    <path
       style="fill:#d40000;fill-opacity:0.50499998;stroke:none;stroke-width:2.66666675;stroke-linecap:butt;stroke-linejoin:miter;stroke-miterlimit:4;stroke-dasharray:none;stroke-dashoffset:0;stroke-opacity:1"
       d="m 228.47694,272.37823 v -4.24265 h 4.41942 4.41941 v 4.24265 4.24264 h -4.41941 -4.41942 z"
       id="path905"
       inkscape:connector-curvature="0"
       transform="scale(0.26458333)" />
    <path
       style="fill:#d40000;fill-opacity:0.50499998;stroke:none;stroke-width:2.66666675;stroke-linecap:butt;stroke-linejoin:miter;stroke-miterlimit:4;stroke-dasharray:none;stroke-dashoffset:0;stroke-opacity:1"
       d="m 238.37643,272.37823 v -4.24265 h 4.41942 4.41942 v 4.24265 4.24264 h -4.41942 -4.41942 z"
       id="path907"
       inkscape:connector-curvature="0"
       transform="scale(0.26458333)" />
    <path
       style="fill:#d40000;fill-opacity:0.50499998;stroke:none;stroke-width:2.66666675;stroke-linecap:butt;stroke-linejoin:miter;stroke-miterlimit:4;stroke-dasharray:none;stroke-dashoffset:0;stroke-opacity:1"
       d="m 228.47694,262.47873 v -4.24264 h 4.41942 4.41941 v 4.24264 4.24264 h -4.41941 -4.41942 z"
       id="path909"
       inkscape:connector-curvature="0"
       transform="scale(0.26458333)" />
    <path
       style="fill:#d40000;fill-opacity:0.50499998;stroke:none;stroke-width:2.66666675;stroke-linecap:butt;stroke-linejoin:miter;stroke-miterlimit:4;stroke-dasharray:none;stroke-dashoffset:0;stroke-opacity:1"
       d="m 208.67795,262.47873 v -4.24264 h 4.24264 4.24264 v 4.24264 4.24264 h -4.24264 -4.24264 z"
       id="path911"
       inkscape:connector-curvature="0"
       transform="scale(0.26458333)" />
    <path
       style="fill:#d40000;fill-opacity:0.50499998;stroke:none;stroke-width:2.66666675;stroke-linecap:butt;stroke-linejoin:miter;stroke-miterlimit:4;stroke-dasharray:none;stroke-dashoffset:0;stroke-opacity:1"
       d="m 208.67795,272.37823 v -4.24265 h 4.24264 4.24264 v 4.24265 4.24264 h -4.24264 -4.24264 z"
       id="path913"
       inkscape:connector-curvature="0"
       transform="scale(0.26458333)" />
    <path
       style="fill:#d40000;fill-opacity:0.50499998;stroke:none;stroke-width:2.66666675;stroke-linecap:butt;stroke-linejoin:miter;stroke-miterlimit:4;stroke-dasharray:none;stroke-dashoffset:0;stroke-opacity:1"
       d="m 198.4249,272.37823 v -4.24265 h 4.41942 4.41942 v 4.24265 4.24264 h -4.41942 -4.41942 z"
       id="path915"
       inkscape:connector-curvature="0"
       transform="scale(0.26458333)" />
    <path
       style="fill:#d40000;fill-opacity:0.50499998;stroke:none;stroke-width:2.66666675;stroke-linecap:butt;stroke-linejoin:miter;stroke-miterlimit:4;stroke-dasharray:none;stroke-dashoffset:0;stroke-opacity:1"
       d="m 198.4249,262.47873 v -4.24264 h 4.41942 4.41942 v 4.24264 4.24264 h -4.41942 -4.41942 z"
       id="path917"
       inkscape:connector-curvature="0"
       transform="scale(0.26458333)" />
    <path
       style="fill:#d40000;fill-opacity:0.50499998;stroke:none;stroke-width:2.66666675;stroke-linecap:butt;stroke-linejoin:miter;stroke-miterlimit:4;stroke-dasharray:none;stroke-dashoffset:0;stroke-opacity:1"
       d="m 198.4249,282.4545 v -4.41942 h 4.41942 4.41942 v 4.41942 4.41941 h -4.41942 -4.41942 z"
       id="path919"
       inkscape:connector-curvature="0"
       transform="scale(0.26458333)" />
    <path
       style="fill:#d40000;fill-opacity:0.50499998;stroke:none;stroke-width:2.66666675;stroke-linecap:butt;stroke-linejoin:miter;stroke-miterlimit:4;stroke-dasharray:none;stroke-dashoffset:0;stroke-opacity:1"
       d="m 208.67795,282.4545 v -4.41942 h 4.24264 4.24264 v 4.41942 4.41941 h -4.24264 -4.24264 z"
       id="path921"
       inkscape:connector-curvature="0"
       transform="scale(0.26458333)" />
    <path
       style="fill:#d40000;fill-opacity:0.50499998;stroke:none;stroke-width:2.66666675;stroke-linecap:butt;stroke-linejoin:miter;stroke-miterlimit:4;stroke-dasharray:none;stroke-dashoffset:0;stroke-opacity:1"
       d="m 208.67795,292.35399 v -4.41942 h 4.24264 4.24264 v 4.41942 4.41942 h -4.24264 -4.24264 z"
       id="path923"
       inkscape:connector-curvature="0"
       transform="scale(0.26458333)" />
    <path
       style="fill:#d40000;fill-opacity:0.50499998;stroke:none;stroke-width:2.66666675;stroke-linecap:butt;stroke-linejoin:miter;stroke-miterlimit:4;stroke-dasharray:none;stroke-dashoffset:0;stroke-opacity:1"
       d="m 228.47694,292.35399 v -4.41942 h 4.41942 4.41941 v 4.41942 4.41942 h -4.41941 -4.41942 z"
       id="path925"
       inkscape:connector-curvature="0"
       transform="scale(0.26458333)" />
    <path
       style="fill:#d40000;fill-opacity:0.50499998;stroke:none;stroke-width:2.66666675;stroke-linecap:butt;stroke-linejoin:miter;stroke-miterlimit:4;stroke-dasharray:none;stroke-dashoffset:0;stroke-opacity:1"
       d="m 228.47694,282.4545 v -4.41942 h 4.41942 4.41941 v 4.41942 4.41941 h -4.41941 -4.41942 z"
       id="path927"
       inkscape:connector-curvature="0"
       transform="scale(0.26458333)" />
    <path
       style="fill:#d40000;fill-opacity:0.50499998;stroke:none;stroke-width:2.66666675;stroke-linecap:butt;stroke-linejoin:miter;stroke-miterlimit:4;stroke-dasharray:none;stroke-dashoffset:0;stroke-opacity:1"
       d="m 238.37643,282.4545 v -4.41942 h 4.41942 4.41942 v 4.41942 4.41941 h -4.41942 -4.41942 z"
       id="path929"
       inkscape:connector-curvature="0"
       transform="scale(0.26458333)" />
    <path
       style="fill:#d40000;fill-opacity:0.50499998;stroke:none;stroke-width:2.66666675;stroke-linecap:butt;stroke-linejoin:miter;stroke-miterlimit:4;stroke-dasharray:none;stroke-dashoffset:0;stroke-opacity:1"
       d="m 238.37643,262.47873 v -4.24264 h 4.41942 4.41942 v 4.24264 4.24264 h -4.41942 -4.41942 z"
       id="path931"
       inkscape:connector-curvature="0"
       transform="scale(0.26458333)" />
    <path
       style="fill:#d40000;fill-opacity:0.50499998;stroke:none;stroke-width:2.66666675;stroke-linecap:butt;stroke-linejoin:miter;stroke-miterlimit:4;stroke-dasharray:none;stroke-dashoffset:0;stroke-opacity:1"
       d="m 228.47694,252.40246 v -4.41942 h 4.41942 4.41941 v 4.41942 4.41942 h -4.41941 -4.41942 z"
       id="path933"
       inkscape:connector-curvature="0"
       transform="scale(0.26458333)" />
    <path
       style="fill:#d40000;fill-opacity:0.50499998;stroke:none;stroke-width:2.66666675;stroke-linecap:butt;stroke-linejoin:miter;stroke-miterlimit:4;stroke-dasharray:none;stroke-dashoffset:0;stroke-opacity:1"
       d="m 208.67795,252.40246 v -4.41942 h 4.24264 4.24264 v 4.41942 4.41942 h -4.24264 -4.24264 z"
       id="path935"
       inkscape:connector-curvature="0"
       transform="scale(0.26458333)" />
    <g
       id="g968"
       transform="translate(39.662798,-17.14796)">
      <path
         style="fill:#d400b5;fill-opacity:1;stroke:none;stroke-width:0.70555556;stroke-linecap:butt;stroke-linejoin:miter;stroke-miterlimit:4;stroke-dasharray:none;stroke-dashoffset:0;stroke-opacity:1"
         d="m 4.7923096,64.913346 v -1.312374 h 1.312372 1.312374 v 1.312374 1.312372 h -1.312374 -1.312372 z"
         id="path941"
         inkscape:connector-curvature="0" />
      <path
         style="fill:#d40000;fill-opacity:0.50499998;stroke:none;stroke-width:0.70555556;stroke-linecap:butt;stroke-linejoin:miter;stroke-miterlimit:4;stroke-dasharray:none;stroke-dashoffset:0;stroke-opacity:1"
         d="m 4.7923096,69.194578 v -1.312371 h 1.312372 1.312374 v 1.312371 1.312372 h -1.312374 -1.312372 z"
         id="path943"
         inkscape:connector-curvature="0" />
      <text
         id="text947"
         y="66.020195"
         x="8.3722181"
         style="font-style:normal;font-weight:normal;font-size:3.30729151px;line-height:125%;font-family:sans-serif;letter-spacing:0px;word-spacing:0px;fill:#000000;fill-opacity:1;stroke:none;stroke-width:0.26458332px;stroke-linecap:butt;stroke-linejoin:miter;stroke-opacity:1"
         xml:space="preserve"><tspan
           style="stroke-width:0.26458332px"
           y="66.020195"
           x="8.3722181"
           id="tspan945"
           sodipodi:role="line">center voxel</tspan></text>
      <text
         id="text951"
         y="70.30143"
         x="8.2430277"
         style="font-style:normal;font-weight:normal;font-size:3.30729151px;line-height:125%;font-family:sans-serif;letter-spacing:0px;word-spacing:0px;fill:#000000;fill-opacity:1;stroke:none;stroke-width:0.26458332px;stroke-linecap:butt;stroke-linejoin:miter;stroke-opacity:1"
         xml:space="preserve"><tspan
           style="stroke-width:0.26458332px"
           y="70.30143"
           x="8.2430277"
           id="tspan949"
           sodipodi:role="line">included in seachlight</tspan></text>
      <circle
         style="fill:none;fill-opacity:1;stroke:#d40000;stroke-width:0.70555562;stroke-linecap:butt;stroke-linejoin:miter;stroke-miterlimit:4;stroke-dasharray:none;stroke-dashoffset:0;stroke-opacity:1"
         id="circle953"
         cx="6.0336084"
         cy="73.475815"
         r="1.0289878" />
      <text
         id="text957"
         y="74.513268"
         x="8.3754473"
         style="font-style:normal;font-weight:normal;font-size:3.30729151px;line-height:125%;font-family:sans-serif;letter-spacing:0px;word-spacing:0px;fill:#000000;fill-opacity:1;stroke:none;stroke-width:0.26458332px;stroke-linecap:butt;stroke-linejoin:miter;stroke-opacity:1"
         xml:space="preserve"><tspan
           style="stroke-width:0.26458332px"
           y="74.513268"
           x="8.3754473"
           id="tspan955"
           sodipodi:role="line">searchlight radius</tspan></text>
    </g>
  </g>
</svg>
